<?xml version="1.0" standalone="no"?>
<!DOCTYPE svg PUBLIC "-//W3C//DTD SVG 20010904//EN"
 "http://www.w3.org/TR/2001/REC-SVG-20010904/DTD/svg10.dtd">
<svg version="1.0" xmlns="http://www.w3.org/2000/svg"
 width="1024.000000pt" height="1024.000000pt" viewBox="0 0 1024.000000 1024.000000"
 preserveAspectRatio="xMidYMid meet">
<metadata>
Created by potrace 1.16, written by Peter Selinger 2001-2019
</metadata>
<g transform="translate(0.000000,1024.000000) scale(0.100000,-0.100000)"
fill="#000000" stroke="none">
<path d="M1178 6790 c-265 -46 -498 -271 -553 -535 -22 -103 -22 -1557 -1
-1669 56 -290 289 -521 581 -577 29 -5 318 -9 676 -9 l625 0 95 -46 c116 -57
322 -126 454 -153 144 -30 342 -46 458 -37 l97 8 -44 61 c-57 81 -148 231
-191 318 l-35 69 40 52 c49 63 102 170 127 253 16 55 18 128 21 860 3 898 4
879 -68 1030 -86 178 -236 303 -435 362 -55 16 -128 18 -930 19 -478 1 -891
-2 -917 -6z m1738 -301 c130 -24 248 -118 296 -236 l23 -58 3 -755 c2 -554 0
-770 -9 -810 -25 -118 -113 -241 -208 -289 -22 -12 -41 -24 -41 -26 0 -3 27
-62 60 -132 33 -69 60 -128 60 -129 0 -6 -192 66 -271 101 -43 20 -115 57
-161 83 l-83 47 -680 5 c-661 5 -681 6 -731 26 -117 48 -204 136 -247 250 -22
59 -22 63 -25 804 -2 531 0 762 8 805 31 157 156 284 312 314 67 13 1622 13
1694 0z"/>
<path d="M1753 6252 c-90 -32 -158 -102 -178 -183 -5 -21 -17 -29 -78 -47 -85
-25 -154 -67 -190 -113 -51 -68 -70 -177 -47 -273 8 -36 6 -43 -19 -75 -63
-80 -76 -118 -76 -221 0 -108 18 -158 80 -221 34 -36 35 -38 25 -87 -27 -146
70 -287 220 -317 61 -12 68 -15 74 -38 9 -38 76 -106 129 -134 111 -56 241
-38 328 46 l51 49 40 -44 c108 -117 309 -111 418 12 18 21 39 52 46 71 11 25
20 33 39 33 13 0 50 10 82 21 122 46 193 161 179 291 -6 58 -5 59 38 112 57
70 71 113 70 211 -1 93 -22 151 -78 212 -32 37 -34 42 -26 79 46 195 -55 350
-256 395 -48 11 -53 15 -65 51 -61 185 -306 247 -446 113 l-47 -45 -32 35
c-65 72 -187 101 -281 67z m177 -158 c23 -21 44 -51 50 -72 6 -23 10 -262 10
-637 0 -674 2 -652 -75 -711 -48 -36 -129 -40 -172 -8 -70 52 -93 157 -53 240
16 32 34 48 81 74 64 34 85 63 75 104 -10 41 -33 56 -86 56 -101 0 -201 -114
-217 -247 -6 -58 -9 -59 -56 -39 -47 20 -78 58 -84 104 -8 61 3 92 32 92 18 0
26 7 31 24 12 50 1 70 -53 96 -64 31 -92 56 -109 97 -26 61 -11 157 32 204 15
17 18 16 56 -11 90 -65 292 -100 324 -55 19 26 18 69 -3 87 -10 8 -43 18 -74
22 -116 13 -205 61 -239 130 -24 50 -25 94 -5 143 21 50 42 72 90 94 62 29 79
25 100 -20 45 -102 159 -160 223 -115 37 26 29 63 -28 119 -78 77 -97 134 -65
196 23 43 71 69 127 69 41 0 54 -5 88 -36z m453 16 c14 -11 33 -40 42 -64 23
-61 8 -110 -55 -179 -54 -59 -61 -86 -30 -117 51 -51 156 8 208 116 19 41 53
45 118 13 51 -24 82 -69 90 -131 9 -64 -10 -111 -62 -157 -52 -46 -110 -68
-201 -77 -36 -4 -71 -13 -79 -21 -21 -21 -17 -70 7 -94 19 -19 29 -21 88 -15
89 8 155 28 223 70 l58 34 24 -28 c35 -42 50 -116 36 -171 -14 -50 -64 -105
-106 -115 -41 -10 -64 -33 -64 -65 0 -42 10 -59 35 -59 18 0 24 -7 29 -33 12
-62 -19 -124 -76 -153 -46 -24 -53 -18 -72 56 -30 116 -98 189 -184 198 -61 5
-92 -19 -92 -71 0 -36 19 -58 83 -96 48 -29 67 -67 67 -131 0 -91 -40 -149
-115 -169 -90 -24 -183 40 -205 141 -8 37 -10 223 -8 633 l3 580 23 43 c13 23
37 52 55 62 44 27 125 27 160 0z"/>
<path d="M7690 5845 l0 -105 120 0 120 0 0 105 0 105 -120 0 -120 0 0 -105z"/>
<path d="M3920 5335 l0 -605 331 0 330 0 -2 105 -2 105 -214 0 -213 0 0 500 0
500 -115 0 -115 0 0 -605z"/>
<path d="M4884 5647 c-92 -24 -154 -75 -197 -162 -37 -75 -50 -155 -50 -315 1
-117 5 -157 21 -207 58 -183 156 -249 355 -241 85 3 110 8 153 30 81 42 148
136 169 236 l7 32 -99 0 -99 0 -19 -42 c-37 -80 -120 -109 -195 -70 -44 24
-71 78 -77 155 l-5 62 252 -2 253 -1 -6 116 c-10 176 -39 262 -114 334 -21 20
-59 46 -86 58 -60 27 -191 35 -263 17z m198 -194 c31 -30 46 -68 50 -131 l2
-43 -143 -2 -143 -2 6 53 c10 81 39 127 96 151 38 16 101 4 132 -26z"/>
<path d="M5694 5650 c-134 -28 -211 -106 -229 -232 l-6 -48 104 0 104 0 17 43
c19 50 58 77 111 77 82 0 125 -50 125 -148 l0 -60 -137 -5 c-95 -3 -153 -10
-185 -21 -68 -25 -133 -86 -152 -143 -19 -54 -21 -184 -5 -234 31 -93 112
-150 223 -157 104 -6 151 10 212 72 l50 52 -4 -53 -4 -53 106 0 106 0 0 350
c0 328 -1 353 -21 404 -25 68 -81 120 -154 142 -60 19 -204 27 -261 14z m224
-580 c-8 -114 -70 -180 -168 -180 -33 0 -48 6 -72 30 -29 29 -30 34 -26 95 6
104 34 123 177 124 l94 1 -5 -70z"/>
<path d="M7190 5645 c-49 -16 -73 -34 -108 -79 l-22 -29 0 52 0 51 -105 0
-105 0 0 -450 0 -450 110 0 110 0 0 310 c0 329 3 353 49 394 30 27 113 33 147
11 51 -33 54 -58 54 -400 l0 -315 111 0 110 0 -3 368 c-3 403 -3 402 -67 474
-17 20 -49 43 -70 52 -60 23 -158 29 -211 11z"/>
<path d="M8420 5651 c-51 -16 -89 -42 -119 -78 l-31 -38 0 53 0 52 -105 0
-105 0 0 -450 0 -450 109 0 110 0 3 318 c3 281 5 321 21 349 44 81 174 86 212
8 12 -28 15 -85 15 -354 l0 -321 110 0 110 0 0 353 c0 382 -4 416 -54 481 -14
18 -46 43 -72 55 -51 24 -162 36 -204 22z"/>
<path d="M9058 5644 c-88 -27 -155 -121 -179 -250 -13 -70 -6 -352 10 -404 6
-19 25 -60 43 -90 26 -43 44 -60 88 -82 106 -54 229 -46 301 19 l39 35 0 -55
c0 -81 -18 -153 -47 -187 -54 -65 -160 -58 -198 13 l-20 37 -112 0 -112 0 8
-27 c29 -100 84 -169 164 -204 45 -21 68 -24 172 -24 108 0 125 3 175 26 70
33 116 79 149 149 l26 55 3 493 3 492 -101 0 -100 0 0 -42 0 -42 -38 37 c-64
63 -171 83 -274 51z m226 -188 c58 -24 71 -68 71 -241 0 -125 -3 -155 -18
-182 -47 -87 -170 -95 -212 -14 -37 72 -43 297 -11 376 28 67 96 92 170 61z"/>
<path d="M6591 5628 c-28 -14 -54 -37 -72 -67 l-29 -45 0 62 0 62 -105 0 -105
0 0 -450 0 -450 110 0 110 0 0 290 c0 323 3 344 62 380 27 17 46 20 106 18
l72 -3 0 113 0 112 -52 0 c-34 0 -69 -8 -97 -22z"/>
<path d="M7690 5190 l0 -450 110 0 110 0 0 450 0 450 -110 0 -110 0 0 -450z"/>
</g>
</svg>
