<?xml version="1.0" standalone="no"?>
<!DOCTYPE svg PUBLIC "-//W3C//DTD SVG 20010904//EN"
 "http://www.w3.org/TR/2001/REC-SVG-20010904/DTD/svg10.dtd">
<svg version="1.0" xmlns="http://www.w3.org/2000/svg"
 width="1536.000000pt" height="1024.000000pt" viewBox="0 0 1536.000000 1024.000000"
 preserveAspectRatio="xMidYMid meet">
<metadata>
Created by potrace 1.16, written by Peter Selinger 2001-2019
</metadata>
<g transform="translate(0.000000,1024.000000) scale(0.100000,-0.100000)"
fill="#000000" stroke="none">
<path d="M2838 7170 c-278 -48 -516 -230 -633 -483 -73 -159 -69 -86 -72
-1141 -4 -1047 -5 -1035 59 -1199 106 -275 385 -488 690 -527 50 -6 370 -10
824 -10 l741 0 149 -64 c402 -173 742 -254 1097 -263 l198 -6 -151 304 c-96
191 -149 307 -144 315 5 6 26 33 46 60 51 66 112 185 136 265 40 131 43 222
40 1149 -3 881 -4 885 -26 965 -73 260 -235 454 -474 564 -174 81 -78 75
-1323 77 -610 1 -1131 -2 -1157 -6z m2255 -371 c144 -48 248 -147 309 -290
l23 -54 3 -929 c3 -1013 5 -972 -54 -1087 -32 -63 -120 -157 -183 -194 -28
-16 -51 -33 -51 -36 0 -4 45 -84 100 -179 55 -94 100 -174 100 -177 0 -3 -20
-3 -45 0 -80 11 -330 112 -603 243 l-155 74 -788 0 c-537 0 -805 4 -841 11
-164 34 -302 155 -369 324 l-24 60 -3 890 c-2 634 0 910 9 958 35 210 220 384
429 405 36 4 519 6 1073 4 989 -2 1010 -3 1070 -23z"/>
<path d="M3574 6541 c-96 -25 -193 -111 -229 -204 l-17 -44 -71 -5 c-85 -6
-139 -30 -207 -94 -67 -63 -101 -143 -102 -239 0 -40 5 -90 12 -110 12 -37 12
-38 -33 -84 -130 -132 -136 -338 -14 -463 l37 -37 -27 -58 c-23 -49 -27 -71
-27 -143 1 -122 28 -186 113 -271 76 -76 139 -105 250 -115 l68 -7 24 -56 c59
-142 215 -230 359 -200 78 16 141 53 206 121 l56 58 21 -27 c38 -50 88 -93
141 -121 46 -24 62 -27 151 -27 92 0 104 2 154 30 67 37 125 102 150 168 l19
52 84 11 c147 19 258 97 316 222 24 50 27 70 27 157 0 89 -3 106 -27 155 l-27
55 38 40 c68 70 86 117 86 220 0 77 -4 98 -27 145 -15 30 -47 74 -71 98 l-44
43 14 42 c10 28 13 66 11 113 -11 177 -142 313 -311 322 l-67 4 -30 63 c-34
71 -99 136 -168 168 -36 17 -66 22 -132 22 -109 0 -172 -28 -254 -115 l-57
-60 -51 55 c-68 74 -158 119 -247 122 -36 1 -80 -2 -97 -6z m173 -152 c56 -27
110 -91 128 -153 22 -74 22 -1438 0 -1512 -44 -149 -216 -226 -328 -148 -53
37 -90 106 -82 152 16 85 56 120 153 132 73 9 102 31 102 76 0 43 -33 64 -100
64 -101 0 -184 -46 -247 -137 l-38 -55 -65 4 c-106 8 -178 56 -219 148 -27 58
-27 141 -1 198 l19 42 167 0 c158 0 169 1 191 22 27 26 31 79 7 99 -12 10 -64
15 -190 19 l-172 5 -39 31 c-21 17 -46 46 -55 65 -35 68 -14 174 46 228 l26
25 33 -31 c70 -65 170 -103 274 -103 61 0 93 23 93 68 0 51 -33 72 -112 72
-170 1 -302 182 -239 325 12 27 29 58 39 68 26 29 89 58 141 64 l47 5 17 -56
c37 -117 168 -218 285 -220 62 -1 82 16 82 70 0 40 -30 64 -78 64 -43 0 -82
21 -120 64 -88 100 -58 247 63 310 43 22 120 20 172 -5z m610 6 c75 -32 113
-92 113 -180 0 -104 -61 -179 -161 -194 -81 -13 -111 -62 -70 -112 16 -20 28
-24 75 -23 115 3 233 95 277 215 19 52 25 59 48 59 80 0 179 -67 202 -137 27
-82 5 -170 -59 -236 -53 -55 -103 -77 -194 -87 -90 -9 -111 -22 -111 -71 0
-63 60 -82 184 -59 68 13 133 45 181 88 22 20 44 32 52 29 8 -3 28 -25 43 -48
24 -37 28 -52 28 -114 0 -63 -3 -76 -28 -108 -51 -67 -84 -77 -266 -77 l-160
0 -20 -26 c-27 -35 -26 -59 4 -89 24 -25 27 -25 193 -25 l170 0 16 -25 c43
-66 37 -189 -12 -260 -44 -63 -109 -97 -195 -103 -70 -4 -73 -4 -84 21 -19 40
-82 106 -130 134 -60 35 -173 45 -203 18 -25 -22 -26 -66 -2 -94 12 -16 34
-24 74 -30 95 -13 148 -66 148 -149 0 -53 -20 -93 -62 -126 -92 -69 -210 -51
-292 46 -67 78 -66 63 -66 849 0 788 -2 769 68 850 62 73 157 98 239 64z"/>
<path d="M6390 5445 l0 -775 425 0 425 0 0 123 0 122 -280 -3 -280 -3 0 656 0
655 -145 0 -145 0 0 -775z"/>
<path d="M11240 6100 l0 -120 135 0 135 0 0 120 0 120 -135 0 -135 0 0 -120z"/>
<path d="M7681 5845 c-241 -68 -333 -267 -318 -689 5 -158 18 -219 63 -307 30
-59 101 -131 157 -158 55 -27 166 -51 232 -51 63 0 173 23 216 45 87 46 166
150 195 260 22 80 29 76 -117 73 l-132 -3 -13 -44 c-15 -51 -47 -88 -91 -107
-44 -19 -80 -17 -129 5 -60 27 -93 98 -102 220 -4 51 -6 94 -3 97 3 2 142 4
310 4 l306 -1 -4 113 c-4 158 -23 259 -66 345 -43 86 -114 153 -195 184 -74
28 -233 35 -309 14z m217 -215 c46 -28 73 -94 79 -191 l6 -79 -177 0 c-202 0
-185 -11 -166 109 21 128 71 181 170 181 38 0 65 -6 88 -20z"/>
<path d="M8697 5845 c-157 -40 -246 -143 -255 -297 l-5 -78 130 0 130 0 6 46
c5 51 31 92 68 111 33 17 124 16 159 -2 50 -26 60 -51 60 -146 l0 -87 -47 -16
c-27 -8 -110 -29 -185 -45 -203 -44 -273 -85 -330 -194 -30 -58 -38 -222 -14
-295 37 -109 112 -173 227 -194 117 -20 232 15 315 97 l43 44 12 -60 12 -59
121 0 121 0 -3 337 c-4 603 -5 611 -31 671 -32 72 -96 127 -180 153 -87 28
-271 35 -354 14z m293 -740 c0 -132 -10 -165 -63 -212 -41 -35 -88 -48 -148
-40 -68 9 -109 65 -109 147 0 86 48 144 145 174 50 15 153 43 168 45 4 1 7
-51 7 -114z"/>
<path d="M10628 5847 c-63 -18 -121 -58 -148 -101 -12 -20 -26 -36 -31 -36 -5
0 -9 29 -9 65 l0 65 -130 0 -130 0 0 -585 0 -585 134 0 135 0 3 423 c3 405 4
423 24 457 32 55 77 80 143 80 80 0 116 -24 135 -91 13 -44 16 -121 16 -461
l0 -408 140 0 140 0 0 423 c0 232 -5 455 -10 495 -24 182 -104 258 -283 267
-51 3 -99 0 -129 -8z"/>
<path d="M12145 5847 c-22 -8 -54 -21 -71 -30 -32 -17 -94 -81 -94 -97 0 -6
-4 -10 -10 -10 -6 0 -10 28 -10 65 l0 65 -130 0 -130 0 0 -585 0 -585 140 0
140 0 0 418 c0 416 0 419 23 462 32 60 75 82 154 78 44 -3 68 -10 84 -23 48
-43 49 -57 49 -510 l0 -425 141 0 140 0 -3 483 c-4 429 -6 487 -22 528 -27 72
-77 124 -144 149 -71 27 -200 36 -257 17z"/>
<path d="M13003 5842 c-73 -26 -118 -59 -158 -117 -72 -103 -95 -214 -95 -452
0 -185 16 -286 58 -377 40 -86 73 -120 150 -158 61 -30 74 -33 162 -33 78 0
102 4 136 22 37 20 90 71 122 119 11 16 12 0 7 -96 -7 -167 -27 -220 -97 -256
-34 -17 -120 -20 -159 -6 -29 12 -79 66 -79 88 0 11 -24 14 -131 14 l-132 0 6
-49 c16 -137 126 -237 288 -262 87 -14 223 -6 296 16 113 34 201 123 245 244
l23 66 3 618 3 617 -125 0 -125 0 -3 -71 -3 -72 -32 50 c-48 74 -113 106 -223
110 -64 3 -98 -1 -137 -15z m295 -228 c15 -11 38 -42 52 -70 24 -48 25 -54 25
-269 0 -215 -1 -221 -25 -269 -34 -68 -67 -90 -133 -90 -144 0 -192 106 -185
414 3 129 8 174 21 205 20 45 52 83 82 96 34 15 132 5 163 -17z"/>
<path d="M9460 5255 l0 -585 135 0 135 0 0 338 c0 271 3 348 15 389 34 115
105 166 231 167 l74 1 0 139 0 139 -72 -5 c-47 -3 -88 -13 -114 -26 -46 -24
-112 -94 -120 -129 -4 -13 -11 -23 -16 -23 -6 0 -9 35 -6 90 l3 90 -132 0
-133 0 0 -585z"/>
<path d="M11240 5255 l0 -585 135 0 135 0 0 585 0 585 -135 0 -135 0 0 -585z"/>
</g>
</svg>
